<svg width="47" height="38" viewBox="0 0 47 38" fill="none" xmlns="http://www.w3.org/2000/svg">
<path d="M47 4.90836C45.7032 6.79704 44.0798 8.43924 42.206 9.75748C42.2247 10.1188 42.234 10.524 42.234 10.9733C42.2278 13.5284 41.8498 16.069 41.112 18.5153C40.3386 21.0858 39.183 23.5253 37.684 25.7521C36.1547 28.0428 34.3048 30.1026 32.191 31.8683C29.9125 33.7325 27.3171 35.1714 24.529 36.1164C21.446 37.1899 18.2015 37.726 14.937 37.7013C9.73101 37.7359 4.62507 36.2715 0.229004 33.4826C0.98875 33.5674 1.75257 33.6106 2.51703 33.6125C6.83052 33.659 11.0322 32.2407 14.435 29.5895C12.4257 29.5722 10.4741 28.9155 8.86304 27.7145C7.26806 26.5628 6.08137 24.9327 5.47504 23.0612C6.91313 23.3375 8.39522 23.2831 9.80902 22.9015C7.65139 22.5 5.70256 21.355 4.30103 19.6662C2.86628 18.0102 2.08757 15.8864 2.112 13.6955V13.5802C3.44828 14.3084 4.93778 14.7107 6.45898 14.7536C5.15799 13.9115 4.08633 12.7597 3.34003 11.4015C2.56035 9.99122 2.16353 8.40098 2.18915 6.78971C2.21476 5.17844 2.66191 3.60225 3.48602 2.21744C5.92131 5.1353 8.93697 7.51471 12.3414 9.20426C15.7458 10.8938 19.4644 11.8565 23.261 12.0314C22.8893 10.4718 22.9298 8.84213 23.3787 7.30289C23.8275 5.76365 24.6692 4.3675 25.821 3.25211C27.6777 1.45206 30.1732 0.463218 32.759 0.502598C35.3447 0.541977 37.809 1.6068 39.61 3.46256C41.7546 3.05115 43.8143 2.28002 45.702 1.18229C45.0062 3.38683 43.4998 5.24543 41.487 6.38248C43.3868 6.16144 45.2441 5.66379 47 4.90543V4.90836Z" fill="white"/>
</svg>
